<?xml version="1.0" encoding="utf-8"?>
<!-- Generator: Adobe Illustrator 24.0.1, SVG Export Plug-In . SVG Version: 6.00 Build 0)  -->
<svg version="1.1" xmlns="http://www.w3.org/2000/svg" xmlns:xlink="http://www.w3.org/1999/xlink" x="0px" y="0px"
	 viewBox="0 0 612 413" style="enable-background:new 0 0 612 413;" xml:space="preserve">
<style type="text/css">
	.st0{fill:#FFFFFF;}
	.st1{fill:#3D1E5E;}
	.st2{fill:#604F46;}
	.st3{fill:#8242C4;}
	.st4{fill:#F5D088;}
	.st5{fill:#E2AA5B;}
	.st6{fill:#8342C4;}
	.st7{fill:#F6D08A;}
	.st8{fill:#D54258;}
	.st9{fill:#615047;}
	.st10{fill:#F6D18B;}
	.st11{fill:#BD85DF;}
	.st12{opacity:0.33;clip-path:url(#SVGID_2_);fill:#2B1144;enable-background:new    ;}
	.st13{opacity:0.33;clip-path:url(#SVGID_4_);fill:#2B1144;enable-background:new    ;}
	.st14{opacity:0.15;}
	.st15{clip-path:url(#SVGID_6_);fill:url(#SVGID_7_);}
</style>
<g id="Layer_1">
	<path class="st0" d="M477.1,98.5c0,0,7.4,2.9,15.8,0.5c0.6-0.2,1.1,0.5,0.8,1c-1.9,3-7.1,9.2-17.8,9.3c-1,0-1.8-0.7-1.8-1.7
		c-0.1-0.6,0-1.4,0.2-2.3l3.1,0.5l2-6.1L477.1,98.5z"/>
	<path class="st1" d="M458.8,365.3c0.7-7.6,0.8-15.4-0.2-23.1c-0.2-2.1-0.3-4.3-0.6-6.4c-0.8-5.5-3-7-8.5-6.1
		c-8.8,1.4-17.6,2.7-26.6,3.4c-10.4,0.9-20.5-1-30.7-2.6c-12-1.9-23.4-5.2-34.3-10.7c-25.8-13-41.3-35-53.4-60.1
		c-9-18.5-14.7-38.2-22.9-56.9c-9.4-21.4-16.7-43.7-27.9-64.3c-7.3-13.5-16.2-25.4-27.7-35.6c-12.1-10.7-25.2-19.5-40.6-24.6
		c-5.4-1.8-11-3.4-16.5-4.9c-2.1-0.6-3.6-0.9-3,2.7c1.1,6.8,1.8,13.8,1.8,20.7c0,4.2-0.1,8.4,0.5,12.4c2.5,16.5,1.7,33-0.8,49.5
		c-2,13.1-4.4,26.2-6.7,39.3c-0.3,1.6-0.4,2.8,1.5,3.5c10.9,4.2,19.1,12.2,27.5,19.9c17.6,16.2,30.8,36,43.6,56
		c13.3,20.8,25.4,42.6,42.6,60.7c9.1,9.6,17.9,19.8,28.6,27.7c25.3,18.8,53.7,31,84.5,37.4c8.3,1.7,16.8,3.3,25.4,2
		c7.9-1.2,15.2-4.2,22.3-7.6C450,391.1,457.5,380.2,458.8,365.3z"/>
	<path class="st2" d="M507.8,69.1c-4.8-0.2-8.5,2.4-12.2,4.7c-10.2,6.2-20.1,12.7-31.1,17.6c-9.1,3.8-9.6,5.1-13.3,9.4
		c-2.8,3.3-5.9,6.3-10,8c-3.4,1.5-3,3.2-0.8,5.4c5,5,11,6.3,17.7,4.4c1-0.3,2.3-0.9,2.9,0.3c0.6,1.2-0.8,2.2-1.5,2.4
		c-5,1.2-3,5.9-4.5,8.8c-0.4,0.7,0.2,1.3,0.9,1.5c5.8,1.9,9.3,8.3,16.2,8.2c0.9,0,1.9,0.6,2,1.7c0.2,1.1-0.6,1.6-1.4,2.2
		c-1.6,1.1-3.4,2.2-4.7,3.7c-2.9,3.3-6.4,6.1-9.2,9.1c-2.5,2.7,2,8.1,0.8,12.5c-1.3,6.5,0.8,11.4,7.2,13.4c3.9,1.3,8,1.9,12.2,1.3
		c7.5-1,14.4-4.1,21.7-5.6c10.2-2,20.4-4.7,30.7-0.6c2,0.8,3.6-0.2,5.1-1.4c4.7-3.8,9.1-7.9,13.3-12.2c7.1-7.4,7.9-18.5,1.9-26.8
		c-3.7-5.2-9.4-7.7-14.8-10.7c-9.8-5.7-18.5-12.6-21.2-24.4c-1.6-7-0.7-14.1,0.5-21.1C517.5,74.3,513.7,69.3,507.8,69.1z M478,112.4
		c-5.8,0.7-7.9-1.5-7-7.3c0.1-0.5,0.4-1,0.5-1.5c0.8-4.7,0.8-4.7-4.2-5.9c3.9-2.5,7.8-3.5,11.6-2.7c4.7,1,7.1-0.5,8.1-5
		c0.1-0.7,0.4-1.3,1.3-1.5c0.8,1.5-0.2,2.8-0.3,4.2c-0.1,1.1-0.6,2.2,0.6,2.8c1.5,0.8,2.1-0.6,3-1.4c1.5-1.4,1-3.9,2.8-5.1
		c0.3,0.2,0.6,0.3,0.6,0.4c0.4,1.8-2,4-0.1,5.2c2,1.2,3.9-0.7,5.7-1.7c0.2-0.1,0.5,0.1,0.9,0.1C496.4,103.1,490,111.1,478,112.4z"/>
	<path class="st3" d="M264.6,152.1c9.5,20.1,17,41,25.4,61.6c7.7,18.7,13.7,38,23.7,55.7c7.2,12.8,15.3,24.9,26.6,34.4
		c21.9,18.3,48,23.8,75,25.6c9.9-0.2,19.4-1.2,28.7-2.9c9.1-1.6,12.3-4.9,13.8-14.2c1.2-7,2.2-14,3.2-20.9c0.9-5.8-0.8-7.6-6.6-6.1
		s-11.6,2.4-17.4,2.6c-22.3,1-44.4,0.1-65.6-8.7c-19.4-8.1-36.3-19.4-50-35.4c-9.6-11.2-16.3-24.2-23-37.2
		c-8.8-17-16-34.8-25.1-51.7c-5.8-10.8-12.8-20.7-20.5-30.2c-0.6-0.8-1.5-1.9-2.6-1c-1,0.8,0.2,1.7,0.6,2.4
		C255.4,134.8,260.4,143.3,264.6,152.1z"/>
	<path class="st1" d="M601.4,177.3c-0.3-6.1,0.3-12.3-0.5-18.4c-2.5-21.1-7-41.6-16.9-60.6c-8.5-16.5-19-31.6-31.4-45.4
		c-17.3-19.3-37.4-34.8-61-45.7c-13.9-6.4-28.1-7.2-42.5-2.3c-4.1,1.4-7.7,3.6-9.6,7.9c-3.1,7.2,1.3,22.3,7.9,26.6
		c0.6,0.4,1.2,0.6,1.8,0.2c0.9-0.6,0.5-1.3,0.1-2.1c-1.8-3.4-3.9-6.7-5.3-10.3c-1.6-4.2-2.1-8.5,1.2-12.4c3.5-4.1,8-4.5,12.9-3.2
		c3.5,1,6.6,2.9,9.6,5c23,16.2,43.9,35,64.5,54.1c16.9,15.7,29.9,34.5,40.5,55c9.6,18.4,13.7,38.3,14.9,58.9
		c0.9,15.5-0.6,30.9-3,46.3c-3.3,21.3-9.1,42-16.9,62.1c-1.9,5-4.5,9.7-5.8,14.9c-0.3,1-0.7,2.7,0.5,3.3c1.4,0.6,2.4-0.7,3.2-1.8
		c3.6-5,6.3-10.5,9.3-16c9.7-17.9,15.2-37.1,19-57.1C597.6,216.7,602.7,197.4,601.4,177.3z"/>
	<path class="st4" d="M521.7,287.4c-0.1-5.6,0-11.2,0.8-16.9c2.5-17.3,9.8-32.4,20-46.4c7.1-9.7,16.2-17.5,24.1-26.4
		c8.8-9.9,14.8-20.7,13.9-33.4c0.4-3.9-0.3-6.9-1-9.7c-6.4-23.8-18.5-44.7-33.7-63.9c-7.9-10-17.5-18.4-26.7-27.2
		c-13.5-12.7-28-24.2-42.3-35.9c-4.4-3.6-5.3-3.5-9.4,0.7c-4.7,4.7-7.9,10.4-11.1,16.2c-3.7,6.7-7.6,13.4-14.2,17.7
		c-6.3,4.1-12.8,7.4-20.4,2.8c-3.8-2.3-5.9-5.2-5.6-9.8c0.3-4.4,2.9-7.4,5.3-10.6c0.5-0.6,1.4-1.2,0.8-2c-0.3-0.4-1.2-0.6-1.8-0.5
		c-4.8,1-9.3,2.3-12.5,6.5c-11,14.4-3.9,34.3,12.5,41.2c12.9,5.4,25.6,3.5,38.3-0.7c9.7-3.1,18.1-8.6,26.8-13.6
		c5.7-3.3,10.8-7.5,17.1-9.6c6.9-2.2,12.1-0.5,16,5.5c3.6,5.4,2.5,11.3,1.3,17.1c-1.9,9.2-0.7,17.5,6.1,24.6
		c5.6,5.9,12.8,8.7,20.2,11.1c3.3,1.1,6.4,2.4,9.1,4.9c9.1,8.3,10,18.4,6.8,29.5c-4.3,14.6-14.9,24.7-25.1,34.8
		c-11.2,11.1-23.5,21.1-34.6,32.3c-10.8,10.9-19.6,23.1-26.7,36.5c-2.6,4.8-5,9.7-6.7,15c-2.8,8.7-4.9,17.6-5.9,26.6
		c-0.9,8.2-2.4,16.5-1.8,24.8c1.2,15.2,3.5,30.3,1.4,45.6c-1,7.5-3.6,14.5-8.1,20.8c-3.9,5.4-8.7,9.9-14.2,13.5c-1,0.7-2.6,1.4-2,3
		c0.6,1.5,2.1,1.5,3.5,1.4c0.8,0,1.6,0.1,2.4,0c12.9-2.9,25.1-8.1,34.3-17.5c10.3-10.5,19-22.7,25.7-35.8
		C516,337,522.3,313,521.7,287.4z"/>
	<path class="st5" d="M583.7,195.1c0-3.4,0.1-6.7,0-10.1c0-1,0.9-2.7-0.9-3c-1.3-0.2-1.7,1.1-2.2,2.1c-4.5,8.7-10.6,16.1-17.6,22.9
		c-8.7,8.6-16.9,17.6-23.3,28.1c-7.9,12.9-12.8,26.7-13.7,41.9c-0.6,9.6-0.1,19.3-1,28.9c-1.7,18.8-7.9,36.3-15.9,53.2
		c-5,10.5-12.1,19.6-18.9,28.9c-0.7,0.9-2,2.1-1.1,3.1c0.9,1.1,2.5,0.5,3.7-0.1c0.6-0.3,1.2-0.7,1.7-1c15.9-11.5,30-24.8,41.4-40.7
		c14.5-20.1,23.7-42.8,31.6-66.1C577.1,254.5,583.2,225.3,583.7,195.1z"/>
	<path class="st2" d="M160.8,89.2c-1-6.3-3-8.7-9.2-9.9c-5.6-1.2-11.2-2.2-17-2.8c-15.8-1.5-31.3-0.1-46.5,4.3
		c-19.4,5.6-37.5,15-57.5,18.9c3.6,2.6,7.7,3,11.8,3.3c10.8,0.6,21-2.4,30.8-6.5c9.8-4.2,19.7-6.4,30.3-3.1
		c7.8,2.4,15.8,4.3,23.5,6.9c6.2,2.1,12.5,0.9,18.7,1.5c1.9,0.2,4.4,0.3,4.2,2.6c-0.2,2.8-2.8,1.5-4.5,1.4
		c-6.3-0.6-12.2-0.2-16.8,5.2c-3.4,3.9-7.9,6.2-13.1,7.2c-3.9,0.8-7.9,1.2-11.7,2.8c-1.8,0.7-3.4,1.5-3,3.6s2.1,3,4.2,3
		c6.9,0.2,13.7,0.3,20-3.1c2.1-1.1,4.5-1.6,6.9-2c5.5-0.9,11.2-0.8,16.7-2c8.1-1.7,12.4-6.1,13.3-14.3
		C162.6,100.6,161.7,94.9,160.8,89.2z"/>
	<path class="st6" d="M592.5,91.2c-7.9-15.9-18.3-30.2-30-43.5c-11.5-13.2-25.3-23.4-40.4-32.1c-1.3-0.8-3.2-2.1-4.3-0.3
		c-1,1.7,1,2.8,2.3,3.7c15.8,10.6,29.3,23.7,41.4,38.4c15.3,18.7,28,38.9,35.5,62.1c9.7,30.1,10.6,61,6.8,92.1
		c-2.4,19.4-7.3,38.3-14.4,56.6c-0.5,1.1-1.8,2.7-0.3,3.5c1.8,0.9,2.4-1.2,2.9-2.5c3.1-7,5.7-14.1,8-21.4
		c7.8-24.2,11.8-49.1,11.9-74.5c0-11-1.3-21.9-3.1-32.7C605.9,123.3,600.3,106.9,592.5,91.2z"/>
	<path class="st2" d="M37.9,53.9c-0.9,1.2,0.3,2.6,1.1,3.6c3.9,5.2,8.6,9.4,14.5,12.3c7.4,3.7,15.8,3.8,23.3,7.4
		c3,1.4,6.3-2.7,9.8-3.7c0.2-0.1,0.3-0.4,0.4-0.7c-0.3-1.3-1.6-1.4-2.5-1.6c-14.9-4.3-28.8-10.8-42.9-17.1
		C40.4,53.6,38.9,52.7,37.9,53.9z"/>
	<path class="st7" d="M21.5,43.1C18.4,41,15,39.2,16.8,35c0-1.4,0-2.4,0-3.3c0-1.3,0.3-2.9-1.5-3.2c-1.8-0.3-1.6,1.5-2.1,2.5
		c-2.3,4.2-4.9,7.7-10.5,7.1c-1-0.1-2.3-0.3-2.6,1.1c-0.3,1.1,0.6,1.8,1.4,2.3c5.1,2.9,7.5,7,6.6,13c-0.1,0.8,0,1.7,1,2
		c0.9,0.2,1.6-0.3,2-1c0.5-0.9,1.1-1.9,1.4-2.9c1.3-4.1,3.8-6.3,8.4-5.8c1.1,0.1,2.7,0.3,3.1-1.1C24.1,44.1,22.5,43.8,21.5,43.1z"/>
	<path class="st8" d="M451.4,145.8c-1.4,0.7-2.1,1.9-2.1,3.2c0,1.6,1.7,1.9,2.9,2.4c1,0.4,2.1,0.5,2.3,0.5
		c4.5,0.1,11.1-4.3,11.5-8.1c0.3-2.6-3.5-2.9-5.1-4.6c-0.8-0.9-1.8-1.7-2.8-2.3c-3.4-1.9-6.9-3-10.6-1.2c-1.4,0.7-2.7,2-2.6,3.8
		c0.2,2.1,2,1.6,3.4,1.9c0.8,0.1,1.5,0.5,2.3,0.5c1.3,0.1,2.6,0.2,3,1.6C454,145.1,452.4,145.4,451.4,145.8z"/>
	<path class="st7" d="M40.5,42.8c0.8,0.3,2.3,0.7,2.8-0.7s-0.9-1.8-1.8-2.3c-3.6-1.9-6.2-4.3-4.6-8.9c0.4-1.2,0.9-3.2-0.3-3.7
		c-1.7-0.7-2.4,1.3-3,2.5c-1.8,3.6-4.2,5.8-8.5,5c-1-0.2-2.6-1.2-3,0.6c-0.4,1.5,1.3,2,2.3,2.3c4.5,1.3,5.1,4.5,4.7,8.5
		c-0.1,0.8-0.9,1.8,0.5,3c0.6-0.7,1.3-1.1,1.6-1.8C32.9,43.1,35.6,40.9,40.5,42.8z"/>
	<path class="st9" d="M83,100.7c-7.8,2.2-14.4,6.2-19.6,12.5c-0.7,0.8-1.9,1.5-1.3,2.7c0.7,1.2,1.9,0.6,2.9,0.4
		c9.7-2.1,16-9,23.2-15.8C85.8,99.8,84.4,100.3,83,100.7z"/>
	<path class="st10" d="M13.8,86.6c-0.3-1.2-0.1-3.1-1.9-2.9s-1.4,2-1.4,3.3c-0.1,4-1.3,7.1-5.8,7.6c-1,0.1-2,0.4-1.9,1.6
		C2.9,97.3,4,97,4.8,97c4.4,0.4,7.4,2.1,7.4,7.1c0,0.9,0.3,2.4,1.7,2.3c1.3-0.2,1.3-1.5,1.3-2.6c-0.1-4.2,1.6-6.9,5.9-7.8
		c0.4-0.1,0.8-0.6,2.3-1.9C17.1,94.3,14.8,91.1,13.8,86.6z"/>
	<path class="st11" d="M482.2,99.6c-1.7,0-3.4-1.1-5.1-1.1c0.9,0.6,0.8,2.2,0,4.4c-0.4,1-1.6,2-3,2.4c-0.1,0.9,0.1,1.8,1.8,1.9
		c2.9,0.3,6.6-2.4,7-5.3C483,101.1,483.2,99.6,482.2,99.6z"/>
	<g>
		<g>
			<defs>
				<path id="SVGID_1_" d="M467.3,28.4c0,0,82.6,48,104.8,136.9S535.9,349,535.9,349l97.4-44.2L607,14.4l-143,7.5L467.3,28.4z"/>
			</defs>
			<clipPath id="SVGID_2_">
				<use xlink:href="#SVGID_1_"  style="overflow:visible;"/>
			</clipPath>
			<path class="st12" d="M521.7,287.4c-0.1-5.6,0-11.2,0.8-16.9c2.5-17.3,9.8-32.4,20-46.4c7.1-9.7,16.2-17.5,24.1-26.4
				c8.8-9.9,14.8-20.7,13.9-33.4c0.4-3.9-0.3-6.9-1-9.7c-6.4-23.8-18.5-44.7-33.7-63.9c-7.9-10-17.5-18.4-26.7-27.2
				c-13.5-12.7-28-24.2-42.3-35.9c-4.4-3.6-5.3-3.5-9.4,0.7c-4.7,4.7-7.9,10.4-11.1,16.2c-3.7,6.7-7.6,13.4-14.2,17.7
				c-6.3,4.1-12.8,7.4-20.4,2.8c-3.8-2.3-5.9-5.2-5.6-9.8c0.3-4.4,2.9-7.4,5.3-10.6c0.5-0.6,1.4-1.2,0.8-2c-0.3-0.4-1.2-0.6-1.8-0.5
				c-4.8,1-9.3,2.3-12.5,6.5c-11,14.4-3.9,34.3,12.5,41.2c12.9,5.4,25.6,3.5,38.3-0.7c9.7-3.1,18.1-8.6,26.8-13.6
				c5.7-3.3,10.8-7.5,17.1-9.6c6.9-2.2,12.1-0.5,16,5.5c3.6,5.4,2.5,11.3,1.3,17.1c-1.9,9.2-0.7,17.5,6.1,24.6
				c5.6,5.9,12.8,8.7,20.2,11.1c3.3,1.1,6.4,2.4,9.1,4.9c9.1,8.3,10,18.4,6.8,29.5c-4.3,14.6-14.9,24.7-25.1,34.8
				c-11.2,11.1-23.5,21.1-34.6,32.3c-10.8,10.9-19.6,23.1-26.7,36.5c-2.6,4.8-5,9.7-6.7,15c-2.8,8.7-4.9,17.6-5.9,26.6
				c-0.9,8.2-2.4,16.5-1.8,24.8c1.2,15.2,3.5,30.3,1.4,45.6c-1,7.5-3.6,14.5-8.1,20.8c-3.9,5.4-8.7,9.9-14.2,13.5
				c-1,0.7-2.6,1.4-2,3c0.6,1.5,2.1,1.5,3.5,1.4c0.8,0,1.6,0.1,2.4,0c12.9-2.9,25.1-8.1,34.3-17.5c10.3-10.5,19-22.7,25.7-35.8
				C516,337,522.3,313,521.7,287.4z"/>
		</g>
		<g>
			<defs>
				<path id="SVGID_3_" d="M467.3,28.4c0,0,82.6,48,104.8,136.9S535.9,349,535.9,349l97.4-44.2L607,14.4l-143,7.5L467.3,28.4z"/>
			</defs>
			<clipPath id="SVGID_4_">
				<use xlink:href="#SVGID_3_"  style="overflow:visible;"/>
			</clipPath>
			<path class="st13" d="M583.7,195.1c0-3.4,0.1-6.7,0-10.1c0-1,0.9-2.7-0.9-3c-1.3-0.2-1.7,1.1-2.2,2.1
				c-4.5,8.7-10.6,16.1-17.6,22.9c-8.7,8.6-16.9,17.6-23.3,28.1c-7.9,12.9-12.8,26.7-13.7,41.9c-0.6,9.6-0.1,19.3-1,28.9
				c-1.7,18.8-7.9,36.3-15.9,53.2c-5,10.5-12.1,19.6-18.9,28.9c-0.7,0.9-2,2.1-1.1,3.1c0.9,1.1,2.5,0.5,3.7-0.1
				c0.6-0.3,1.2-0.7,1.7-1c15.9-11.5,30-24.8,41.4-40.7c14.5-20.1,23.7-42.8,31.6-66.1C577.1,254.5,583.2,225.3,583.7,195.1z"/>
		</g>
	</g>
</g>
<g id="Layer_2">
	<g class="st14">
		<defs>
			<path id="SVGID_5_" class="st14" d="M477.1,97.7c0,0,7.4,2.9,15.8,0.5c0.6-0.2,1.1,0.5,0.8,1c-1.9,3-7.1,9.2-17.8,9.3
				c-1,0-1.8-0.7-1.8-1.7c-0.1-0.6,0-1.4,0.2-2.3l3.1,0.5l2-6.1L477.1,97.7z M458.8,364.5c0.7-7.6,0.8-15.4-0.2-23.1
				c-0.2-2.1-0.3-4.3-0.6-6.4c-0.8-5.5-3-7-8.5-6.1c-8.8,1.4-17.6,2.7-26.6,3.4c-10.4,0.9-20.5-1-30.7-2.6
				c-12-1.9-23.4-5.2-34.3-10.7c-25.8-13-41.3-35-53.4-60.1c-9-18.5-14.7-38.2-22.9-56.9c-9.4-21.4-16.7-43.7-27.9-64.3
				c-7.3-13.5-16.2-25.4-27.7-35.6c-12.1-10.7-25.2-19.5-40.6-24.6c-5.4-1.8-11-3.4-16.5-4.9c-2.1-0.6-3.6-0.9-3,2.7
				c1.1,6.8,1.8,13.8,1.8,20.7c0,4.2-0.1,8.4,0.5,12.4c2.5,16.5,1.7,33-0.8,49.5c-2,13.1-4.4,26.2-6.7,39.3
				c-0.3,1.6-0.4,2.8,1.5,3.5c10.9,4.2,19.1,12.2,27.5,19.9c17.6,16.2,30.8,36,43.6,56c13.3,20.8,25.4,42.6,42.6,60.7
				c9.1,9.6,17.9,19.8,28.6,27.7c25.3,18.8,53.7,31,84.5,37.4c8.3,1.7,16.8,3.3,25.4,2c7.9-1.2,15.2-4.2,22.3-7.6
				C450,390.3,457.5,379.4,458.8,364.5z M507.8,68.3c-4.8-0.2-8.5,2.4-12.2,4.7c-10.2,6.2-20.1,12.7-31.1,17.6
				c-9.1,3.8-9.6,5.1-13.3,9.4c-2.8,3.3-5.9,6.3-10,8c-3.4,1.5-3,3.2-0.8,5.4c5,5,11,6.3,17.7,4.4c1-0.3,2.3-0.9,2.9,0.3
				c0.6,1.2-0.8,2.2-1.5,2.4c-5,1.2-3,5.9-4.5,8.8c-0.4,0.7,0.2,1.3,0.9,1.5c5.8,1.9,9.3,8.3,16.2,8.2c0.9,0,1.9,0.6,2,1.7
				c0.2,1.1-0.6,1.6-1.4,2.2c-1.6,1.1-3.4,2.2-4.7,3.7c-2.9,3.3-6.4,6.1-9.2,9.1c-2.5,2.7,2,8.1,0.8,12.5
				c-1.3,6.5,0.8,11.4,7.2,13.4c3.9,1.3,8,1.9,12.2,1.3c7.5-1,14.4-4.1,21.7-5.6c10.2-2,20.4-4.7,30.7-0.6c2,0.8,3.6-0.2,5.1-1.4
				c4.7-3.8,9.1-7.9,13.3-12.2c7.1-7.4,7.9-18.5,1.9-26.8c-3.7-5.2-9.4-7.7-14.8-10.7c-9.8-5.7-18.5-12.6-21.2-24.4
				c-1.6-7-0.7-14.1,0.5-21.1C517.5,73.5,513.7,68.5,507.8,68.3z M478,111.6c-5.8,0.7-7.9-1.5-7-7.3c0.1-0.5,0.4-1,0.5-1.5
				c0.8-4.7,0.8-4.7-4.2-5.9c3.9-2.5,7.8-3.5,11.6-2.7c4.7,1,7.1-0.5,8.1-5c0.1-0.7,0.4-1.3,1.3-1.5c0.8,1.5-0.2,2.8-0.3,4.2
				c-0.1,1.1-0.6,2.2,0.6,2.8c1.5,0.8,2.1-0.6,3-1.4c1.5-1.4,1-3.9,2.8-5.1c0.3,0.2,0.6,0.3,0.6,0.4c0.4,1.8-2,4-0.1,5.2
				c2,1.2,3.9-0.7,5.7-1.7c0.2-0.1,0.5,0.1,0.9,0.1C496.4,102.3,490,110.3,478,111.6z M264.6,151.3c9.5,20.1,17,41,25.4,61.6
				c7.7,18.7,13.7,38,23.7,55.7c7.2,12.8,15.3,24.9,26.6,34.4c21.9,18.3,48,23.8,75,25.6c9.9-0.2,19.4-1.2,28.7-2.9
				c9.1-1.6,12.3-4.9,13.8-14.2c1.2-7,2.2-14,3.2-20.9c0.9-5.8-0.8-7.6-6.6-6.1s-11.6,2.4-17.4,2.6c-22.3,1-44.4,0.1-65.6-8.7
				c-19.4-8.1-36.3-19.4-50-35.4c-9.6-11.2-16.3-24.2-23-37.2c-8.8-17-16-34.8-25.1-51.7c-5.8-10.8-12.8-20.7-20.5-30.2
				c-0.6-0.8-1.5-1.9-2.6-1c-1,0.8,0.2,1.7,0.6,2.4C255.4,134,260.4,142.5,264.6,151.3z M601.4,176.5c-0.3-6.1,0.3-12.3-0.5-18.4
				c-2.5-21.1-7-41.6-16.9-60.6c-8.5-16.5-19-31.6-31.4-45.4c-17.3-19.3-37.4-34.8-61-45.7c-13.9-6.4-28.1-7.2-42.5-2.3
				c-4.1,1.4-7.7,3.6-9.6,7.9c-3.1,7.2,1.3,22.3,7.9,26.6c0.6,0.4,1.2,0.6,1.8,0.2c0.9-0.6,0.5-1.3,0.1-2.1
				c-1.8-3.4-3.9-6.7-5.3-10.3c-1.6-4.2-2.1-8.5,1.2-12.4c3.5-4.1,8-4.5,12.9-3.2c3.5,1,6.6,2.9,9.6,5c23,16.2,43.9,35,64.5,54.1
				c16.9,15.7,29.9,34.5,40.5,55c9.6,18.4,13.7,38.3,14.9,58.9c0.9,15.5-0.6,30.9-3,46.3c-3.3,21.3-9.1,42-16.9,62.1
				c-1.9,5-4.5,9.7-5.8,14.9c-0.3,1-0.7,2.7,0.5,3.3c1.4,0.6,2.4-0.7,3.2-1.8c3.6-5,6.3-10.5,9.3-16c9.7-17.9,15.2-37.1,19-57.1
				C597.6,215.9,602.7,196.6,601.4,176.5z M521.7,286.6c-0.1-5.6,0-11.2,0.8-16.9c2.5-17.3,9.8-32.4,20-46.4
				c7.1-9.7,16.2-17.5,24.1-26.4c8.8-9.9,14.8-20.7,13.9-33.4c0.4-3.9-0.3-6.9-1-9.7c-6.4-23.8-18.5-44.7-33.7-63.9
				c-7.9-10-17.5-18.4-26.7-27.2c-13.5-12.7-28-24.2-42.3-35.9c-4.4-3.6-5.3-3.5-9.4,0.7c-4.7,4.7-7.9,10.4-11.1,16.2
				c-3.7,6.7-7.6,13.4-14.2,17.7c-6.3,4.1-12.8,7.4-20.4,2.8c-3.8-2.3-5.9-5.2-5.6-9.8c0.3-4.4,2.9-7.4,5.3-10.6
				c0.5-0.6,1.4-1.2,0.8-2c-0.3-0.4-1.2-0.6-1.8-0.5c-4.8,1-9.3,2.3-12.5,6.5c-11,14.4-3.9,34.3,12.5,41.2
				c12.9,5.4,25.6,3.5,38.3-0.7c9.7-3.1,18.1-8.6,26.8-13.6c5.7-3.3,10.8-7.5,17.1-9.6c6.9-2.2,12.1-0.5,16,5.5
				c3.6,5.4,2.5,11.3,1.3,17.1c-1.9,9.2-0.7,17.5,6.1,24.6c5.6,5.9,12.8,8.7,20.2,11.1c3.3,1.1,6.4,2.4,9.1,4.9
				c9.1,8.3,10,18.4,6.8,29.5c-4.3,14.6-14.9,24.7-25.1,34.8c-11.2,11.1-23.5,21.1-34.6,32.3c-10.8,10.9-19.6,23.1-26.7,36.5
				c-2.6,4.8-5,9.7-6.7,15c-2.8,8.7-4.9,17.6-5.9,26.6c-0.9,8.2-2.4,16.5-1.8,24.8c1.2,15.2,3.5,30.3,1.4,45.6
				c-1,7.5-3.6,14.5-8.1,20.8c-3.9,5.4-8.7,9.9-14.2,13.5c-1,0.7-2.6,1.4-2,3c0.6,1.5,2.1,1.5,3.5,1.4c0.8,0,1.6,0.1,2.4,0
				c12.9-2.9,25.1-8.1,34.3-17.5c10.3-10.5,19-22.7,25.7-35.8C516,336.2,522.3,312.2,521.7,286.6z M583.7,194.3
				c0-3.4,0.1-6.7,0-10.1c0-1,0.9-2.7-0.9-3c-1.3-0.2-1.7,1.1-2.2,2.1c-4.5,8.7-10.6,16.1-17.6,22.9c-8.7,8.6-16.9,17.6-23.3,28.1
				c-7.9,12.9-12.8,26.7-13.7,41.9c-0.6,9.6-0.1,19.3-1,28.9c-1.7,18.8-7.9,36.3-15.9,53.2c-5,10.5-12.1,19.6-18.9,28.9
				c-0.7,0.9-2,2.1-1.1,3.1c0.9,1.1,2.5,0.5,3.7-0.1c0.6-0.3,1.2-0.7,1.7-1c15.9-11.5,30-24.8,41.4-40.7
				c14.5-20.1,23.7-42.8,31.6-66.1C577.1,253.7,583.2,224.5,583.7,194.3z M160.8,88.4c-1-6.3-3-8.7-9.2-9.9
				c-5.6-1.2-11.2-2.2-17-2.8c-15.8-1.5-31.3-0.1-46.5,4.3c-19.4,5.6-37.5,15-57.5,18.9c3.6,2.6,7.7,3,11.8,3.3
				c10.8,0.6,21-2.4,30.8-6.5c9.8-4.2,19.7-6.4,30.3-3.1c7.8,2.4,15.8,4.3,23.5,6.9c6.2,2.1,12.5,0.9,18.7,1.5
				c1.9,0.2,4.4,0.3,4.2,2.6c-0.2,2.8-2.8,1.5-4.5,1.4c-6.3-0.6-12.2-0.2-16.8,5.2c-3.4,3.9-7.9,6.2-13.1,7.2
				c-3.9,0.8-7.9,1.2-11.7,2.8c-1.8,0.7-3.4,1.5-3,3.6s2.1,3,4.2,3c6.9,0.2,13.7,0.3,20-3.1c2.1-1.1,4.5-1.6,6.9-2
				c5.5-0.9,11.2-0.8,16.7-2c8.1-1.7,12.4-6.1,13.3-14.3C162.6,99.8,161.7,94.1,160.8,88.4z M592.5,90.4
				c-7.9-15.9-18.3-30.2-30-43.5c-11.5-13.2-25.3-23.4-40.4-32.1c-1.3-0.8-3.2-2.1-4.3-0.3c-1,1.7,1,2.8,2.3,3.7
				c15.8,10.6,29.3,23.7,41.4,38.4c15.3,18.7,28,38.9,35.5,62.1c9.7,30.1,10.6,61,6.8,92.1c-2.4,19.4-7.3,38.3-14.4,56.6
				c-0.5,1.1-1.8,2.7-0.3,3.5c1.8,0.9,2.4-1.2,2.9-2.5c3.1-7,5.7-14.1,8-21.4c7.8-24.2,11.8-49.1,11.9-74.5c0-11-1.3-21.9-3.1-32.7
				C605.9,122.5,600.3,106.1,592.5,90.4z M37.9,53.1c-0.9,1.2,0.3,2.6,1.1,3.6c3.9,5.2,8.6,9.4,14.5,12.3c7.4,3.7,15.8,3.8,23.3,7.4
				c3,1.4,6.3-2.7,9.8-3.7c0.2-0.1,0.3-0.4,0.4-0.7c-0.3-1.3-1.6-1.4-2.5-1.6c-14.9-4.3-28.8-10.8-42.9-17.1
				C40.4,52.8,38.9,51.9,37.9,53.1z M21.5,42.3c-3.1-2.1-6.5-3.9-4.7-8.1c0-1.4,0-2.4,0-3.3c0-1.3,0.3-2.9-1.5-3.2
				c-1.8-0.3-1.6,1.5-2.1,2.5c-2.3,4.2-4.9,7.7-10.5,7.1c-1-0.1-2.3-0.3-2.6,1.1c-0.3,1.1,0.6,1.8,1.4,2.3c5.1,2.9,7.5,7,6.6,13
				c-0.1,0.8,0,1.7,1,2c0.9,0.2,1.6-0.3,2-1c0.5-0.9,1.1-1.9,1.4-2.9c1.3-4.1,3.8-6.3,8.4-5.8c1.1,0.1,2.7,0.3,3.1-1.1
				C24.1,43.3,22.5,43,21.5,42.3z M451.4,145c-1.4,0.7-2.1,1.9-2.1,3.2c0,1.6,1.7,1.9,2.9,2.4c1,0.4,2.1,0.5,2.3,0.5
				c4.5,0.1,11.1-4.3,11.5-8.1c0.3-2.6-3.5-2.9-5.1-4.6c-0.8-0.9-1.8-1.7-2.8-2.3c-3.4-1.9-6.9-3-10.6-1.2c-1.4,0.7-2.7,2-2.6,3.8
				c0.2,2.1,2,1.6,3.4,1.9c0.8,0.1,1.5,0.5,2.3,0.5c1.3,0.1,2.6,0.2,3,1.6C454,144.3,452.4,144.6,451.4,145z M40.5,42
				c0.8,0.3,2.3,0.7,2.8-0.7s-0.9-1.8-1.8-2.3c-3.6-1.9-6.2-4.3-4.6-8.9c0.4-1.2,0.9-3.2-0.3-3.7c-1.7-0.7-2.4,1.3-3,2.5
				c-1.8,3.6-4.2,5.8-8.5,5c-1-0.2-2.6-1.2-3,0.6c-0.4,1.5,1.3,2,2.3,2.3c4.5,1.3,5.1,4.5,4.7,8.5c-0.1,0.8-0.9,1.8,0.5,3
				c0.6-0.7,1.3-1.1,1.6-1.8C32.9,42.3,35.6,40.1,40.5,42z M83,99.9c-7.8,2.2-14.4,6.2-19.6,12.5c-0.7,0.8-1.9,1.5-1.3,2.7
				c0.7,1.2,1.9,0.6,2.9,0.4c9.7-2.1,16-9,23.2-15.8C85.8,99,84.4,99.5,83,99.9z M13.8,85.8c-0.3-1.2-0.1-3.1-1.9-2.9
				s-1.4,2-1.4,3.3c-0.1,4-1.3,7.1-5.8,7.6c-1,0.1-2,0.4-1.9,1.6c0.1,1.1,1.2,0.8,2,0.8c4.4,0.4,7.4,2.1,7.4,7.1
				c0,0.9,0.3,2.4,1.7,2.3c1.3-0.2,1.3-1.5,1.3-2.6c-0.1-4.2,1.6-6.9,5.9-7.8c0.4-0.1,0.8-0.6,2.3-1.9
				C17.1,93.5,14.8,90.3,13.8,85.8z M482.2,98.8c-1.7,0-3.4-1.1-5.1-1.1c0.9,0.6,0.8,2.2,0,4.4c-0.4,1-1.6,2-3,2.4
				c-0.1,0.9,0.1,1.8,1.8,1.9c2.9,0.3,6.6-2.4,7-5.3C483,100.3,483.2,98.8,482.2,98.8z"/>
		</defs>
		<clipPath id="SVGID_6_">
			<use xlink:href="#SVGID_5_"  style="overflow:visible;"/>
		</clipPath>
		<radialGradient id="SVGID_7_" cx="518.2947" cy="109.3158" r="390.4041" gradientUnits="userSpaceOnUse">
			<stop  offset="8.203083e-02" style="stop-color:#FFFFFF"/>
			<stop  offset="0.229" style="stop-color:#CFCFCF"/>
			<stop  offset="0.513" style="stop-color:#777777"/>
			<stop  offset="0.745" style="stop-color:#373737"/>
			<stop  offset="0.913" style="stop-color:#0F0F0F"/>
			<stop  offset="1" style="stop-color:#000000"/>
		</radialGradient>
		<rect class="st15" width="611.9" height="412.1"/>
	</g>
</g>
</svg>
